<mxfile host="app.diagrams.net" modified="2023-02-25T02:56:11.809Z" agent="5.0 (X11; Ubuntu)" etag="qz3VNCOEa73ZqS1zuRGk" version="20.8.23" type="github">
  <diagram name="Page-1" id="H4HJGLfZcfQgHLBg135O">
    <mxGraphModel dx="1360" dy="795" grid="1" gridSize="10" guides="1" tooltips="1" connect="1" arrows="1" fold="1" page="1" pageScale="1" pageWidth="850" pageHeight="1100" math="0" shadow="0">
      <root>
        <mxCell id="0" />
        <mxCell id="1" parent="0" />
        <mxCell id="aZFSHv8Zsd38NP5G6fSy-16" value="" style="edgeStyle=orthogonalEdgeStyle;rounded=0;orthogonalLoop=1;jettySize=auto;html=1;" edge="1" parent="1" source="aZFSHv8Zsd38NP5G6fSy-4" target="aZFSHv8Zsd38NP5G6fSy-15">
          <mxGeometry relative="1" as="geometry" />
        </mxCell>
        <mxCell id="aZFSHv8Zsd38NP5G6fSy-4" value="&lt;div&gt;Authentication&lt;/div&gt;" style="text;html=1;strokeColor=none;fillColor=none;align=center;verticalAlign=middle;whiteSpace=wrap;rounded=0;" vertex="1" parent="1">
          <mxGeometry x="160" y="220" width="60" height="30" as="geometry" />
        </mxCell>
        <mxCell id="aZFSHv8Zsd38NP5G6fSy-5" value="&lt;div&gt;Clients&lt;/div&gt;" style="text;html=1;align=center;verticalAlign=middle;resizable=0;points=[];autosize=1;strokeColor=none;fillColor=none;" vertex="1" parent="1">
          <mxGeometry x="160" y="100" width="60" height="30" as="geometry" />
        </mxCell>
        <mxCell id="aZFSHv8Zsd38NP5G6fSy-7" value="" style="endArrow=classic;html=1;rounded=0;" edge="1" parent="1">
          <mxGeometry width="50" height="50" relative="1" as="geometry">
            <mxPoint x="190" y="130" as="sourcePoint" />
            <mxPoint x="190" y="220" as="targetPoint" />
          </mxGeometry>
        </mxCell>
        <mxCell id="aZFSHv8Zsd38NP5G6fSy-13" value="" style="edgeStyle=orthogonalEdgeStyle;rounded=0;orthogonalLoop=1;jettySize=auto;html=1;" edge="1" parent="1" source="aZFSHv8Zsd38NP5G6fSy-8" target="aZFSHv8Zsd38NP5G6fSy-12">
          <mxGeometry relative="1" as="geometry" />
        </mxCell>
        <mxCell id="aZFSHv8Zsd38NP5G6fSy-8" value="&lt;div&gt;Menu Creation&lt;/div&gt;&lt;div&gt;-&amp;nbsp; Create Categories&lt;/div&gt;&lt;div&gt;- Shop information&lt;/div&gt;" style="text;html=1;align=center;verticalAlign=middle;resizable=0;points=[];autosize=1;strokeColor=none;fillColor=none;" vertex="1" parent="1">
          <mxGeometry x="125" y="280" width="130" height="60" as="geometry" />
        </mxCell>
        <mxCell id="aZFSHv8Zsd38NP5G6fSy-9" value="" style="edgeStyle=none;orthogonalLoop=1;jettySize=auto;html=1;endArrow=classic;startArrow=classic;endSize=8;startSize=8;rounded=0;exitX=0.5;exitY=1;exitDx=0;exitDy=0;entryX=0.515;entryY=-0.033;entryDx=0;entryDy=0;entryPerimeter=0;" edge="1" parent="1" source="aZFSHv8Zsd38NP5G6fSy-4" target="aZFSHv8Zsd38NP5G6fSy-8">
          <mxGeometry width="100" relative="1" as="geometry">
            <mxPoint x="160" y="260" as="sourcePoint" />
            <mxPoint x="260" y="260" as="targetPoint" />
            <Array as="points" />
          </mxGeometry>
        </mxCell>
        <mxCell id="aZFSHv8Zsd38NP5G6fSy-12" value="Create food items" style="text;html=1;align=center;verticalAlign=middle;resizable=0;points=[];autosize=1;strokeColor=none;fillColor=none;" vertex="1" parent="1">
          <mxGeometry x="130" y="435" width="120" height="30" as="geometry" />
        </mxCell>
        <mxCell id="aZFSHv8Zsd38NP5G6fSy-18" value="" style="edgeStyle=orthogonalEdgeStyle;rounded=0;orthogonalLoop=1;jettySize=auto;html=1;" edge="1" parent="1" source="aZFSHv8Zsd38NP5G6fSy-15" target="aZFSHv8Zsd38NP5G6fSy-17">
          <mxGeometry relative="1" as="geometry" />
        </mxCell>
        <mxCell id="aZFSHv8Zsd38NP5G6fSy-15" value="&lt;div&gt;All orders&lt;/div&gt;" style="text;html=1;strokeColor=none;fillColor=none;align=center;verticalAlign=middle;whiteSpace=wrap;rounded=0;" vertex="1" parent="1">
          <mxGeometry x="300" y="220" width="60" height="30" as="geometry" />
        </mxCell>
        <mxCell id="aZFSHv8Zsd38NP5G6fSy-17" value="Bills from customers" style="text;html=1;strokeColor=none;fillColor=none;align=center;verticalAlign=middle;whiteSpace=wrap;rounded=0;" vertex="1" parent="1">
          <mxGeometry x="300" y="330" width="60" height="30" as="geometry" />
        </mxCell>
        <mxCell id="aZFSHv8Zsd38NP5G6fSy-21" value="" style="edgeStyle=orthogonalEdgeStyle;rounded=0;orthogonalLoop=1;jettySize=auto;html=1;" edge="1" parent="1" source="aZFSHv8Zsd38NP5G6fSy-19" target="aZFSHv8Zsd38NP5G6fSy-20">
          <mxGeometry relative="1" as="geometry" />
        </mxCell>
        <mxCell id="aZFSHv8Zsd38NP5G6fSy-19" value="&lt;div&gt;Customers&lt;/div&gt;" style="text;html=1;align=center;verticalAlign=middle;resizable=0;points=[];autosize=1;strokeColor=none;fillColor=none;" vertex="1" parent="1">
          <mxGeometry x="520" y="95" width="80" height="30" as="geometry" />
        </mxCell>
        <mxCell id="aZFSHv8Zsd38NP5G6fSy-23" value="" style="edgeStyle=orthogonalEdgeStyle;rounded=0;orthogonalLoop=1;jettySize=auto;html=1;" edge="1" parent="1" source="aZFSHv8Zsd38NP5G6fSy-20" target="aZFSHv8Zsd38NP5G6fSy-22">
          <mxGeometry relative="1" as="geometry" />
        </mxCell>
        <mxCell id="aZFSHv8Zsd38NP5G6fSy-20" value="&lt;div&gt;Menu&lt;/div&gt;" style="text;html=1;align=center;verticalAlign=middle;resizable=0;points=[];autosize=1;strokeColor=none;fillColor=none;" vertex="1" parent="1">
          <mxGeometry x="535" y="205" width="50" height="30" as="geometry" />
        </mxCell>
        <mxCell id="aZFSHv8Zsd38NP5G6fSy-25" value="" style="edgeStyle=orthogonalEdgeStyle;rounded=0;orthogonalLoop=1;jettySize=auto;html=1;" edge="1" parent="1" source="aZFSHv8Zsd38NP5G6fSy-22" target="aZFSHv8Zsd38NP5G6fSy-24">
          <mxGeometry relative="1" as="geometry" />
        </mxCell>
        <mxCell id="aZFSHv8Zsd38NP5G6fSy-22" value="&lt;div&gt;Cart&lt;/div&gt;" style="text;html=1;align=center;verticalAlign=middle;resizable=0;points=[];autosize=1;strokeColor=none;fillColor=none;" vertex="1" parent="1">
          <mxGeometry x="535" y="315" width="50" height="30" as="geometry" />
        </mxCell>
        <mxCell id="aZFSHv8Zsd38NP5G6fSy-24" value="&lt;div&gt;Paylah payment with bill&lt;/div&gt;" style="text;html=1;align=center;verticalAlign=middle;resizable=0;points=[];autosize=1;strokeColor=none;fillColor=none;" vertex="1" parent="1">
          <mxGeometry x="485" y="425" width="150" height="30" as="geometry" />
        </mxCell>
        <mxCell id="aZFSHv8Zsd38NP5G6fSy-26" value="" style="endArrow=none;html=1;rounded=0;entryX=1;entryY=0.25;entryDx=0;entryDy=0;" edge="1" parent="1" source="aZFSHv8Zsd38NP5G6fSy-24" target="aZFSHv8Zsd38NP5G6fSy-17">
          <mxGeometry width="50" height="50" relative="1" as="geometry">
            <mxPoint x="400" y="440" as="sourcePoint" />
            <mxPoint x="450" y="390" as="targetPoint" />
          </mxGeometry>
        </mxCell>
      </root>
    </mxGraphModel>
  </diagram>
</mxfile>
